<mxfile host="65bd71144e">
    <diagram id="O5uoQnVYmqqMnr7a0Guu" name="ページ1">
        <mxGraphModel dx="433" dy="584" grid="1" gridSize="10" guides="1" tooltips="1" connect="1" arrows="1" fold="1" page="1" pageScale="1" pageWidth="827" pageHeight="1169" math="0" shadow="0">
            <root>
                <mxCell id="0"/>
                <mxCell id="1" parent="0"/>
                <mxCell id="ccaAdkvIlF6hYUP8qOqt-7" value="ユーザ" style="shape=umlActor;verticalLabelPosition=bottom;verticalAlign=top;html=1;outlineConnect=0;" parent="1" vertex="1">
                    <mxGeometry x="100" y="150" width="45" height="80" as="geometry"/>
                </mxCell>
                <mxCell id="ccaAdkvIlF6hYUP8qOqt-14" value="" style="group" parent="1" vertex="1" connectable="0">
                    <mxGeometry x="240" y="60" width="260" height="330" as="geometry"/>
                </mxCell>
                <mxCell id="ccaAdkvIlF6hYUP8qOqt-8" value="" style="rounded=0;whiteSpace=wrap;html=1;" parent="ccaAdkvIlF6hYUP8qOqt-14" vertex="1">
                    <mxGeometry width="260" height="330" as="geometry"/>
                </mxCell>
                <mxCell id="ccaAdkvIlF6hYUP8qOqt-9" value="システム内部" style="text;html=1;align=center;verticalAlign=middle;whiteSpace=wrap;rounded=0;" parent="ccaAdkvIlF6hYUP8qOqt-14" vertex="1">
                    <mxGeometry x="75" y="18" width="90" height="30" as="geometry"/>
                </mxCell>
                <mxCell id="ccaAdkvIlF6hYUP8qOqt-10" value="名前を変更する" style="ellipse;whiteSpace=wrap;html=1;" parent="ccaAdkvIlF6hYUP8qOqt-14" vertex="1">
                    <mxGeometry x="67.5" y="48" width="155" height="80" as="geometry"/>
                </mxCell>
                <mxCell id="ccaAdkvIlF6hYUP8qOqt-12" value="時刻に応じた挨拶をする" style="ellipse;whiteSpace=wrap;html=1;" parent="ccaAdkvIlF6hYUP8qOqt-14" vertex="1">
                    <mxGeometry x="70" y="140" width="150" height="80" as="geometry"/>
                </mxCell>
                <mxCell id="3" value="2つの整数の足し算をする" style="ellipse;whiteSpace=wrap;html=1;" vertex="1" parent="ccaAdkvIlF6hYUP8qOqt-14">
                    <mxGeometry x="70" y="230" width="150" height="80" as="geometry"/>
                </mxCell>
                <mxCell id="4" value="" style="endArrow=none;html=1;rounded=0;entryX=0;entryY=0.5;entryDx=0;entryDy=0;" edge="1" parent="ccaAdkvIlF6hYUP8qOqt-14" target="3">
                    <mxGeometry width="50" height="50" relative="1" as="geometry">
                        <mxPoint x="-90" y="170" as="sourcePoint"/>
                        <mxPoint x="-20" y="210" as="targetPoint"/>
                    </mxGeometry>
                </mxCell>
                <mxCell id="ccaAdkvIlF6hYUP8qOqt-15" value="" style="endArrow=none;html=1;rounded=0;entryX=0;entryY=0.375;entryDx=0;entryDy=0;entryPerimeter=0;" parent="1" target="ccaAdkvIlF6hYUP8qOqt-10" edge="1">
                    <mxGeometry width="50" height="50" relative="1" as="geometry">
                        <mxPoint x="150" y="190" as="sourcePoint"/>
                        <mxPoint x="210" y="210" as="targetPoint"/>
                        <Array as="points"/>
                    </mxGeometry>
                </mxCell>
                <mxCell id="ccaAdkvIlF6hYUP8qOqt-16" value="" style="endArrow=none;html=1;rounded=0;entryX=0;entryY=0.5;entryDx=0;entryDy=0;" parent="1" target="ccaAdkvIlF6hYUP8qOqt-12" edge="1">
                    <mxGeometry width="50" height="50" relative="1" as="geometry">
                        <mxPoint x="150" y="210" as="sourcePoint"/>
                        <mxPoint x="210" y="210" as="targetPoint"/>
                    </mxGeometry>
                </mxCell>
                <mxCell id="2" value="RoboDog" style="text;html=1;align=center;verticalAlign=middle;resizable=0;points=[];autosize=1;strokeColor=none;fillColor=none;" vertex="1" parent="1">
                    <mxGeometry x="85" y="68" width="70" height="30" as="geometry"/>
                </mxCell>
            </root>
        </mxGraphModel>
    </diagram>
</mxfile>